<svg aria-hidden="true" style="width:0;height:0;position:absolute;overflow:hidden" xmlns="http://www.w3.org/2000/svg"><defs><symbol id="icon-burger-menu__icon" viewBox="0 0 32 32"><path d="M5.627 5.975c-.568.097-.82.41-.86 1.067-.039.638.207 1.062.697 1.197.286.079 21.972.079 22.258 0 .488-.135.735-.558.698-1.197-.028-.514-.172-.777-.52-.956l-.269-.139-10.871-.008c-5.978-.005-10.988.012-11.132.037zm-.234 7.16c-.455.161-.67.593-.622 1.254.032.452.184.721.504.891l.229.123h22.18l.229-.123c.32-.171.472-.44.504-.891.049-.679-.199-1.141-.68-1.275-.155-.043-3.384-.06-11.169-.058-9.294.001-10.985.013-11.173.079zm-.056 7.13a1.084 1.084 0 0 0-.515.573l-.002.007c-.152.454-.027 1.153.25 1.4.314.28-.326.264 11.524.264s11.209.015 11.524-.264c.277-.247.402-.946.25-1.4a1.05 1.05 0 0 0-.525-.579l-.006-.003c-.261-.113-22.247-.11-22.498.001z"/></symbol><symbol id="icon-calendar__icon" viewBox="0 0 32 32"><path style="fill:var(--color1,#4440f7)" d="M22.667 4H28a1.335 1.335 0 0 1 1.334 1.334v21.333A1.335 1.335 0 0 1 28 28.001H4a1.33 1.33 0 0 1-1.333-1.334V5.334A1.333 1.333 0 0 1 4 4h5.333V1.333H12V4h8V1.333h2.667V4zm4 10.667H5.334v10.667h21.333V14.667zm-6.667-8h-8v2.667H9.333V6.667h-4V12h21.333V6.667h-4v2.667h-2.667V6.667zM8 17.333h2.667V20H8v-2.667zm6.667 0h2.667V20h-2.667v-2.667zm6.666 0H24V20h-2.667v-2.667z"/></symbol><symbol id="icon-down-arrow__icon" viewBox="0 0 32 32"><path style="fill:var(--color2,#4440f6)" d="M3.76 9.143 0 12.622l16 14.806 16-14.806-3.76-3.479L16 20.445 3.76 9.143z"/></symbol><symbol id="icon-favorite-ckecked__icon" viewBox="0 0 32 32"><path style="fill:var(--color3,#4b48da)" d="M9.333 4c-3.681 0-6.667 2.955-6.667 6.6 0 2.943 1.167 9.927 12.651 16.987a1.316 1.316 0 0 0 1.366 0c11.484-7.06 12.651-14.044 12.651-16.987 0-3.645-2.985-6.6-6.667-6.6S16 8 16 8s-2.985-4-6.667-4z"/></symbol><symbol id="icon-favorites__icon" viewBox="0 0 32 32"><path d="M32 16c0 8.837-7.163 16-16 16S0 24.837 0 16 7.163 0 16 0s16 7.163 16 16z"/><path stroke="#f4f4f4" style="stroke:var(--color4,#f4f4f4)" stroke-linejoin="round" stroke-linecap="round" d="M22.63 10.457a4.111 4.111 0 0 0-4.496-.895 4.1 4.1 0 0 0-1.338.895l-.795.795-.795-.795a4.125 4.125 0 0 0-5.836 0 4.125 4.125 0 0 0 0 5.835l6.63 6.63 6.63-6.63a4.111 4.111 0 0 0 .895-4.496 4.116 4.116 0 0 0-.895-1.338v0z"/></symbol><symbol id="icon-favorite-unckecked__icon" viewBox="0 0 32 32"><path stroke="#4440f7" style="stroke:var(--color1,#4440f7)" stroke-linejoin="round" stroke-linecap="round" stroke-width="2" d="M9.333 4c-3.681 0-6.667 2.955-6.667 6.6 0 2.943 1.167 9.927 12.651 16.987a1.316 1.316 0 0 0 1.366 0c11.484-7.06 12.651-14.044 12.651-16.987 0-3.645-2.985-6.6-6.667-6.6S16 8 16 8s-2.985-4-6.667-4z"/></symbol><symbol id="icon-home__icon" viewBox="0 0 32 32"><path d="M32 16c0 8.837-7.163 16-16 16S0 24.837 0 16 7.163 0 16 0s16 7.163 16 16z"/><path stroke="#f4f4f4" style="stroke:var(--color4,#f4f4f4)" stroke-linejoin="round" stroke-linecap="round" d="M9.25 13.75 16 8.5l6.75 5.25V22a1.503 1.503 0 0 1-1.5 1.5h-10.5a1.503 1.503 0 0 1-1.5-1.5v-8.25z"/><path stroke="#f4f4f4" style="stroke:var(--color4,#f4f4f4)" stroke-linejoin="round" stroke-linecap="round" d="M13.75 23.5V16h4.5v7.5"/></symbol><symbol id="icon-read__icon" viewBox="0 0 32 32"><path d="M32 16c0 8.837-7.163 16-16 16S0 24.837 0 16 7.163 0 16 0s16 7.163 16 16z"/><path stroke="#f4f4f4" style="stroke:var(--color4,#f4f4f4)" stroke-linejoin="round" stroke-linecap="round" d="M8.5 9.25H13a3.004 3.004 0 0 1 3 3v10.5a2.25 2.25 0 0 0-2.25-2.25H8.5V9.25zM23.5 9.25H19a3.004 3.004 0 0 0-3 3v10.5a2.25 2.25 0 0 1 2.25-2.25h5.25V9.25z"/></symbol><symbol id="icon-search__icon" viewBox="0 0 34 32"><path d="M14.035 24c2.491 0 4.911-.793 6.873-2.251l6.17 5.861 1.985-1.885-6.17-5.861c1.535-1.864 2.37-4.163 2.371-6.531 0-5.881-5.037-10.667-11.228-10.667S2.808 7.451 2.808 13.333C2.808 19.214 7.845 24 14.036 24zm0-18.667c4.644 0 8.421 3.588 8.421 8s-3.777 8-8.421 8c-4.644 0-8.421-3.588-8.421-8s3.777-8 8.421-8z"/></symbol><symbol id="icon-theme-dark__icon" viewBox="0 0 32 32"><path stroke="#5f6775" style="stroke:var(--color5,#5f6775)" stroke-linejoin="round" stroke-linecap="round" stroke-width="2.286" d="M28 17.053a11.994 11.994 0 0 1-7.873 10.182A12.003 12.003 0 0 1 4.338 18.56 12.002 12.002 0 0 1 14.946 3.999 9.335 9.335 0 0 0 28 17.053v0z"/></symbol><symbol id="icon-theme-ligth__icon" viewBox="0 0 32 32"><path stroke="#4b48db" style="stroke:var(--color6,#4b48db)" stroke-linejoin="round" stroke-linecap="round" stroke-width="2.286" d="M16 1.778v2.586m0 23.272v2.586M5.941 5.941l1.836 1.836m16.446 16.446 1.836 1.836M1.778 16h2.586m23.272 0h2.586M5.941 26.059l1.836-1.836M24.223 7.777l1.836-1.836M22.465 16a6.465 6.465 0 1 1-12.93 0 6.465 6.465 0 0 1 12.93 0z"/></symbol><symbol id="icon-up-arrow__icon" viewBox="0 0 32 32"><path style="fill:var(--color2,#4440f6)" d="M3.76 25.143 0 21.664 16 6.858l16 14.806-3.76 3.479L16 13.841 3.76 25.143z"/></symbol><symbol id="icon-convchevron-right" viewBox="0 0 32 32"><path fill="none" stroke="#f4f4f4" style="stroke:var(--color1,#f4f4f4)" stroke-linejoin="round" stroke-linecap="round" stroke-width="2.667" d="m12 24 8-8-8-8"/></symbol><symbol id="icon-close-mob-menu" viewBox="0 0 32 32"><path d="M7.501 6.727a2.257 2.257 0 0 0-.772.776l-.006.01a1.15 1.15 0 0 0 .005.99l-.003-.007c.075.149 1.313 1.427 3.745 3.864L14.105 16l-3.635 3.64c-2.432 2.437-3.671 3.715-3.745 3.864-.235.469-.113.977.34 1.431s.961.575 1.431.34c.149-.075 1.427-1.313 3.864-3.745L16 17.895l3.64 3.635c2.437 2.432 3.715 3.671 3.864 3.745.469.235.977.113 1.431-.34s.575-.961.34-1.431c-.075-.149-1.313-1.427-3.745-3.864L17.895 16l3.635-3.64c2.432-2.437 3.671-3.715 3.745-3.864.235-.469.113-.977-.34-1.431s-.961-.575-1.431-.34c-.149.075-1.427 1.313-3.864 3.745L16 14.105l-3.64-3.635C9.923 8.038 8.645 6.799 8.496 6.725a1.173 1.173 0 0 0-1.002.005l.007-.003z"/></symbol></defs></svg>